<svg xmlns="http://www.w3.org/2000/svg" xmlns:xlink="http://www.w3.org/1999/xlink" width="242px" height="32px" viewBox="0 0 242 32" version="1.1">
    <defs>
        <polygon id="path-1" points="0.207779296 0.2846 10.8128406 0.2846 10.8128406 21.4511 0.207779296 21.4511"/>
    </defs>
    <g id="V3" stroke="none" stroke-width="1" fill="none" fill-rule="evenodd">
        <g id="PT" transform="translate(-105.000000, -58.000000)">
            <g id="Group-33" transform="translate(105.000000, 58.000000)">
                <path d="M63.0381441,20.6755 L64.1519453,14.895 L65.2662476,20.6755 L63.0381441,20.6755 Z M66.5995023,27.5945 L69.8627445,27.5945 L65.783817,6.4285 L62.5205747,6.4285 L58.4416472,27.5945 L61.7048894,27.5945 L62.410848,23.932 L65.8935437,23.932 L66.5995023,27.5945 Z" id="Fill-1" fill="#FFFFFF"/>
                <path d="M144.843864,20.6755 L145.957665,14.895 L147.071467,20.6755 L144.843864,20.6755 Z M148.404721,27.5945 L151.667964,27.5945 L147.589036,6.4285 L144.326295,6.4285 L140.246866,27.5945 L143.510108,27.5945 L144.216067,23.932 L147.698763,23.932 L148.404721,27.5945 Z" id="Fill-2" fill="#FFFFFF"/>
                <path d="M86.2880812,20.6755 L87.4023834,14.895 L88.5161847,20.6755 L86.2880812,20.6755 Z M89.8494393,27.5945 L93.1126816,27.5945 L89.033754,6.4285 L85.7705118,6.4285 L81.6915843,27.5945 L84.9548265,27.5945 L85.6607851,23.932 L89.1434807,23.932 L89.8494393,27.5945 Z" id="Fill-3" fill="#FFFFFF"/>
                <polygon id="Fill-4" fill="#FFFFFF" points="135.352153 27.59405 138.615896 27.59405 138.615896 6.42805 135.352153 6.42805"/>
                <polygon id="Fill-5" fill="#FFFFFF" points="213.237573 27.59405 216.500816 27.59405 216.500816 6.42805 213.237573 6.42805"/>
                <polygon id="Fill-6" fill="#FFFFFF" points="116.815755 9.6845 116.815755 6.428 106.79956 6.428 106.79956 24.338 106.79956 24.745 106.79956 27.594 116.815755 27.594 116.815755 24.338 110.062802 24.338 110.062802 17.4185 114.550074 17.4185 114.550074 14.162 110.062802 14.162 110.062802 9.6845"/>
                <g id="Group-32" transform="translate(0.000000, 0.143550)">
                    <path d="M100.681319,24.1943 L97.8259197,24.1943 L97.8259197,9.5408 L100.681319,9.5408 C101.357216,9.5408 101.904847,10.0878 101.904847,10.7623 L101.904847,22.9733 C101.904847,23.6473 101.357216,24.1943 100.681319,24.1943 M100.681319,6.2848 L94.5631785,6.2848 L94.5631785,27.4508 L100.681319,27.4508 C103.159439,27.4508 105.168089,25.4458 105.168089,22.9733 L105.168089,10.7623 C105.168089,8.2893 103.159439,6.2848 100.681319,6.2848" id="Fill-7" fill="#FFFFFF"/>
                    <polygon id="Fill-9" fill="#FFFFFF" points="174.125063 7.50555 174.125063 6.28455 165.287303 6.28455 165.287303 7.50555 165.287303 26.23005 165.287303 27.45055 174.125063 27.45055 174.125063 26.23005 166.510831 26.23005 166.510831 16.46105 171.745646 16.46105 171.745646 15.23955 166.510831 15.23955 166.510831 7.50555"/>
                    <path d="M206.529915,24.1943 L203.674515,24.1943 L203.674515,9.5408 L206.529915,9.5408 C207.205811,9.5408 207.753443,10.0878 207.753443,10.7623 L207.753443,22.9733 C207.753443,23.6473 207.205811,24.1943 206.529915,24.1943 M206.529915,6.2848 L200.411273,6.2848 L200.411273,9.1338 L200.411273,9.5408 L200.411273,24.1943 L200.411273,24.6013 L200.411273,27.4508 L206.529915,27.4508 C209.007534,27.4508 211.016685,25.4458 211.016685,22.9733 L211.016685,10.7623 C211.016685,8.2893 209.007534,6.2848 206.529915,6.2848" id="Fill-11" fill="#FFFFFF"/>
                    <polygon id="Fill-13" fill="#FFFFFF" points="129.868573 6.2846 125.789145 21.4036 121.710718 6.2846 118.447476 6.2846 118.447476 27.4506 121.710718 27.4506 121.710718 18.3796 124.158275 27.4511 127.421017 27.4511 129.868573 18.3796 129.868573 27.4506 133.131816 27.4506 133.131816 6.2846"/>
                    <path d="M162.431953,22.9731 L162.431953,22.9731 L162.431953,22.9731 C162.431953,24.7721 160.970935,26.2301 159.168711,26.2301 L155.747142,26.2301 L155.747142,7.5056 L159.168711,7.5056 C160.970935,7.5056 162.431953,8.9636 162.431953,10.7621 L162.431953,22.9731 Z M159.168711,6.2846 L154.523614,6.2846 L154.523614,7.5056 L154.523614,26.2301 L154.523614,27.4506 L159.168711,27.4506 C161.646831,27.4506 163.655481,25.4461 163.655481,22.9731 L163.655481,10.7621 C163.655481,8.2891 161.646831,6.2846 159.168711,6.2846 L159.168711,6.2846 Z" id="Fill-15" fill="#FFFFFF"/>
                    <path d="M81.1703072,13.20455 L81.1703072,11.57605 C81.1703072,8.65355 78.7964025,6.28455 75.8678518,6.28455 C72.939301,6.28455 70.5648952,8.65355 70.5648952,11.57605 L70.5648952,22.15955 C70.5648952,25.08205 72.939301,27.45105 75.8678518,27.45105 C78.7964025,27.45105 81.1703072,25.08205 81.1703072,22.15955 L81.1703072,20.53155 L77.907065,20.53155 L77.907065,22.15955 C77.907065,23.28355 76.9941789,24.19455 75.8678518,24.19455 C74.7410236,24.19455 73.8281375,23.28355 73.8281375,22.15955 L73.8281375,11.57605 C73.8281375,10.45205 74.7410236,9.54105 75.8678518,9.54105 C76.9941789,9.54105 77.907065,10.45205 77.907065,11.57605 L77.907065,13.20455 L81.1703072,13.20455 Z" id="Fill-17" fill="#FFFFFF"/>
                    <path d="M186.293754,13.20455 L186.293754,11.57605 C186.293754,8.65355 183.91985,6.28455 180.991299,6.28455 C178.062247,6.28455 175.688342,8.65355 175.688342,11.57605 L175.688342,22.15955 C175.688342,25.08205 178.062247,27.45105 180.991299,27.45105 C183.91985,27.45105 186.293754,25.08205 186.293754,22.15955 L186.293754,20.53155 L183.030512,20.53155 L183.030512,22.15955 C183.030512,23.28355 182.117626,24.19455 180.991299,24.19455 C179.864972,24.19455 178.951585,23.28355 178.951585,22.15955 L178.951585,11.57605 C178.951585,10.45205 179.864972,9.54105 180.991299,9.54105 C182.117626,9.54105 183.030512,10.45205 183.030512,11.57605 L183.030512,13.20455 L186.293754,13.20455 Z" id="Fill-19" fill="#FFFFFF"/>
                    <g id="Group-23" transform="translate(230.977226, 6.000000)">
                        <mask id="mask-2" fill="white">
                            <use xlink:href="#path-1"/>
                        </mask>
                        <g id="Clip-22"/>
                        <path d="M7.54944803,16.1596 C7.54944803,17.2836 6.6365619,18.1946 5.51023478,18.1946 C4.38390766,18.1946 3.4705205,17.2836 3.4705205,16.1596 L3.4705205,5.5761 C3.4705205,4.4521 4.38390766,3.5411 5.51023478,3.5411 C6.6365619,3.5411 7.54944803,4.4521 7.54944803,5.5761 L7.54944803,16.1596 Z M5.51023478,0.2846 C2.58168406,0.2846 0.207779296,2.6536 0.207779296,5.5761 L0.207779296,16.1596 C0.207779296,19.0821 2.58168406,21.4511 5.51023478,21.4511 C8.43878551,21.4511 10.8131913,19.0821 10.8131913,16.1596 L10.8131913,5.5761 C10.8131913,2.6536 8.43878551,0.2846 5.51023478,0.2846 L5.51023478,0.2846 Z" id="Fill-21" fill="#FFFFFF" mask="url(#mask-2)"/>
                    </g>
                    <path d="M194.525612,10.1518 C194.886358,10.5188 195.108817,11.0218 195.108817,11.5763 L195.108817,22.1598 C195.108817,23.2838 194.195931,24.1948 193.069604,24.1948 C191.943277,24.1948 191.02989,23.2838 191.02989,22.1598 L191.02989,11.5763 C191.02989,10.4523 191.943277,9.5408 193.069604,9.5408 L193.069604,6.2848 C190.140552,6.2848 187.766648,8.6538 187.766648,11.5763 L187.766648,22.1598 C187.766648,25.0818 190.140552,27.4513 193.069604,27.4513 C195.997654,27.4513 198.37206,25.0818 198.37206,22.1598 L198.37206,11.5763 C198.37206,10.2003 197.845472,8.9473 196.98319,8.0058 L194.525612,10.1518 Z" id="Fill-24" fill="#FFFFFF"/>
                    <path d="M229.553083,13.20455 L229.553083,11.57605 C229.553083,8.65355 227.179178,6.28455 224.250628,6.28455 C221.322077,6.28455 218.948172,8.65355 218.948172,11.57605 L218.948172,22.15955 C218.948172,25.08205 221.322077,27.45105 224.250628,27.45105 C224.25664,27.45105 224.261651,27.45105 224.267663,27.45105 L226.698185,27.45105 L226.698185,27.45055 L229.553083,27.45055 L229.553083,19.42355 L229.553083,16.16705 L223.842785,16.16705 L223.842785,19.42355 L226.289841,19.42355 L226.289841,24.19455 L224.250628,24.19455 L224.250628,24.19455 C223.124301,24.19455 222.211414,23.28355 222.211414,22.15955 L222.211414,11.57605 C222.211414,10.45205 223.124301,9.54105 224.250628,9.54105 C225.376955,9.54105 226.289841,10.45205 226.289841,11.57605 L226.289841,13.20455 L229.553083,13.20455 Z" id="Fill-26" fill="#FFFFFF"/>
                    <path d="M24.6059387,18.92255 L17.4045598,11.73605 L20.4052596,8.74155 L27.6066385,15.92805 L24.6059387,18.92255 Z M15.6043404,9.93955 L12.6031395,6.94455 L15.6043404,3.95005 L18.6050402,6.94455 L15.6043404,9.93955 Z M6.60173996,18.92305 L3.60104017,15.92905 L10.8029201,8.74205 L13.8031188,11.73655 L6.60173996,18.92305 Z M15.6038393,0.35655 L0.000100207039,15.92805 L0.000100207039,15.92855 L0.000100207039,15.92855 L6.60173996,22.51655 L15.6038393,13.53355 L24.6054377,22.51655 L24.6059387,22.51605 L24.6064398,22.51655 L31.2085805,15.92805 L15.6038393,0.35655 Z" id="Fill-28" fill="#E31D1A"/>
                    <path d="M42.6113901,14.1313 L39.6111913,11.1368 L46.8125702,3.9508 L49.8127689,6.9443 L42.6113901,14.1313 Z M49.8127689,24.9118 L46.8115681,27.9063 L39.6106903,20.7203 L42.6113901,17.7253 L49.8127689,24.9118 Z M37.8099698,18.9228 L34.80927,15.9283 L37.8099698,12.9338 L40.8101685,15.9283 L37.8099698,18.9228 Z M53.4142099,6.9448 L53.4142099,6.9448 L46.8125702,0.3568 L31.2088311,15.9283 L31.2088311,15.9283 L31.2088311,15.9288 L46.8125702,31.4998 L53.4142099,24.9123 L44.4126116,15.9288 L53.4142099,6.9448 Z" id="Fill-30" fill="#E31D1A"/>
                </g>
            </g>
        </g>
    </g>
</svg>